<?xml version="1.0" encoding="UTF-8"?><svg xmlns="http://www.w3.org/2000/svg" viewBox="0 0 917.14 389.66"><defs><style>.c{fill:#fff;}</style></defs><g id="a"/><g id="b"><g><g><path class="c" d="M161.25,154.25c-17.77,14.24-38.15,21.35-61.15,21.35s-43.05-7.06-60.81-21.18c-17.77-14.12-26.65-32.46-26.65-55s8.77-40.77,26.31-54.66c17.54-13.89,37.92-20.84,61.15-20.84s43.39,6.95,61.15,20.84c17.77,13.9,26.65,32.11,26.65,54.66s-8.88,40.6-26.65,54.83ZM55,319.44v-83.7H218.99v-11.62H55v-37.58h220.02v83.7H111.03v11.62h170.82v37.58H55ZM126.58,76.02c-7.63-6.03-16.46-9.05-26.48-9.05s-18.51,3.07-26.14,9.22c-7.63,6.15-11.45,13.67-11.45,22.55s3.81,16.91,11.45,23.4c7.63,6.49,16.34,9.74,26.14,9.74s18.84-3.25,26.48-9.74c7.63-6.49,11.45-14.29,11.45-23.4s-3.82-16.68-11.45-22.72Zm148.44,42.88v57.05h-50.9V19.13h50.9v55.69h40.66v44.07h-40.66Z"/><path class="c" d="M319.78,296.2v-44.07h125.04v-58.76h-86.78V40.66h227.19V193.37h-87.12v58.76h125.38v44.07H319.78Zm214.55-211.48h-125.38v64.57h125.38V84.73Z"/><path class="c" d="M787.99,253.5c-29.72,3.42-59.5,5.12-89.34,5.12h-40.66V49.88h149.98v44.07h-99.08v119.57h15.71c18.22,0,40.77-1.37,67.65-4.1,26.87-2.73,41.22-4.21,43.05-4.44v43.05c-1.83,.23-17.59,2.05-47.32,5.47Zm71.57,69.35V19.13h50.9V322.85h-50.9Z"/></g><g><path class="c" d="M194.26,374.64c-3.06,.38-6.39,.59-10.01,.62l-9.7,.05v-28.37h20.88v4.8h-15.31v18.58h6.62c2.14-.06,4.7-.25,7.66-.55,2.96-.3,4.63-.49,5.02-.55v4.8c-.38,.03-2.1,.24-5.16,.62Zm20.14-15.6v5.04h-6.29v20.54h-5.57v-42.24h5.57v16.66h6.29Z"/><path class="c" d="M239.07,356.07c-.99,3.68-2.59,6.96-4.8,9.84-2.11,2.78-4.28,5.11-6.5,6.98-2.22,1.87-4.5,3.4-6.84,4.58l-4.22-3.26c2.11-1.12,4.25-2.5,6.41-4.13,2.16-1.63,4.04-3.52,5.64-5.66,1.79-2.37,3.08-4.62,3.86-6.77,.78-2.14,1.24-4.11,1.37-5.9h-14.64v-4.8h21.22c0,2.4-.5,5.44-1.49,9.12Zm13.82,8.35v20.21h-5.57v-42.24h5.57v16.94h6.24v5.09h-6.24Z"/><path class="c" d="M260.24,379.97v-4.85h18.1v-8.64h-12.58v-20.5h31.58v4.85h-25.82v10.8h26.16v4.85h-13.39v8.64h18.19v4.85h-42.24Z"/></g><path class="c" d="M587.49,365.76v-4.22h42.24v4.22h-42.24Zm5.28-16.61h24.96v-2.26h-24.96v-3.98h31.25v9.98h-24.96v2.16h25.92v4.03h-32.21v-9.94Zm0,25.06h24.96v-2.26h-24.96v-3.98h31.25v9.98h-24.96v2.16h25.92v4.03h-32.21v-9.94Z"/><g><path class="c" d="M827.69,351.56v-4.85h24.38v4.85h-9.26v1.78c0,1.18,.23,3.02,.7,5.5,.46,2.48,1.43,4.71,2.9,6.7,1.31,1.73,2.68,3.14,4.1,4.22,1.42,1.09,2.47,1.82,3.14,2.21l-3.6,4.18c-.42-.26-1.22-.78-2.4-1.56-1.18-.78-2.38-1.83-3.6-3.14-.93-1.02-1.72-2.05-2.38-3.07-.66-1.02-1.24-2.03-1.75-3.02-.48,1.18-1.09,2.34-1.82,3.46-.74,1.12-1.66,2.3-2.78,3.55-.96,1.06-1.93,1.97-2.9,2.74-.98,.77-2.06,1.55-3.24,2.35l-4.61-3.65c1.89-1.18,3.62-2.51,5.21-3.98,1.58-1.47,2.9-3.09,3.96-4.85,1.18-1.98,2.01-4.12,2.47-6.41,.46-2.29,.7-4.02,.7-5.21v-1.78h-9.22Zm35.09,12.43v20.64h-5.57v-42.24h5.57v16.32h5.95v5.28h-5.95Z"/><path class="c" d="M891.75,346.88c2.22,2.13,3.34,4.68,3.34,7.66s-1.11,5.52-3.34,7.63c-2.22,2.11-5.05,3.17-8.47,3.17s-6.24-1.06-8.45-3.17c-2.21-2.11-3.31-4.66-3.31-7.63s1.1-5.53,3.31-7.66c2.21-2.13,5.02-3.19,8.45-3.19s6.25,1.06,8.47,3.19Zm-12.96,3.43c-1.04,1.18-1.56,2.59-1.56,4.22s.52,2.99,1.56,4.18c1.04,1.18,2.54,1.78,4.49,1.78s3.5-.59,4.54-1.78c1.04-1.18,1.56-2.58,1.56-4.18s-.52-3.04-1.56-4.22c-1.04-1.18-2.55-1.78-4.54-1.78s-3.45,.59-4.49,1.78Zm-1.08,33.36v-13.54h5.81v8.69h26.11v4.85h-31.92Zm25.39-10.75v-30.53h5.57v30.53h-5.57Z"/></g></g></g></svg>